Coordinates
version=1
nRows=16
nColumns=36
inDegrees=yes

Units are S.I. units (second, meters, Newtons, ...)
If the header above contains a line with 'inDegrees', this indicates whether rotational values are in degrees (yes) or radians (no).

endheader
time	pelvis_tilt	pelvis_list	pelvis_rotation	pelvis_tx	pelvis_ty	pelvis_tz	hip_flexion_r	hip_adduction_r	hip_rotation_r	knee_angle_r	knee_angle_r_beta	ankle_angle_r	subtalar_angle_r	mtp_angle_r	hip_flexion_l	hip_adduction_l	hip_rotation_l	knee_angle_l	knee_angle_l_beta	ankle_angle_l	subtalar_angle_l	mtp_angle_l	lumbar_extension	lumbar_bending	lumbar_rotation	arm_flex_r	arm_add_r	arm_rot_r	elbow_flex_r	pro_sup_r	arm_flex_l	arm_add_l	arm_rot_l	elbow_flex_l	pro_sup_l
      0.00000000	      3.07409515	      2.70424140	     -0.38689588	     -0.12105806	      1.03979163	     -0.07788369	     22.78530278	     -4.03148655	      4.69067180	     46.02105978	      0.80321902	      6.90875284	    -22.63626363	     -7.94702236	      8.72458175	      7.10195461	     -7.89975661	     20.02808800	      0.34955608	     18.90567546	      1.36657117	     -7.94702236	     -0.31143255	     -3.98636199	     -1.29529507	     32.54269878	      8.52597076	     59.25715941	    119.20077655	    106.97378336	     45.13319638	      4.50113926	     67.51720338	    126.02966650	     97.38924451
      0.01666670	      3.60786414	      3.85258966	      1.21416713	     -0.11762786	      1.03872813	     -0.07878571	     21.60671454	     -5.37755656	      3.73560052	     44.58903312	      0.77822544	      9.71388173	    -20.50152737	     -7.93297740	      6.72164138	      8.37491712	     -9.69305839	     17.84720478	      0.31149249	     17.58799099	      4.24975303	     -7.93297740	     -0.12272152	     -5.46134045	     -2.66943914	     32.78669426	      9.19128531	     60.67005945	    121.15530185	    106.61370175	     46.63383824	      3.39343999	     68.69354617	    130.01378864	     96.83960807
      0.03333330	      2.07164970	      4.52038022	      1.43275439	     -0.11553886	      1.03608285	     -0.07898208	     23.24184145	     -6.22354862	      3.48838315	     44.44171396	      0.77565423	     11.01754209	    -20.44981545	     -7.85249944	      7.87938377	      8.96132921	    -12.05341819	     17.17946492	      0.29983823	     16.94576171	      7.55298997	     -7.85249944	      2.03468626	     -6.43374984	     -2.18301674	     30.90915070	      9.04845080	     61.80807230	    121.81773626	    103.14874872	     46.04247805	      2.96291850	     69.23594879	    132.14427496	     92.86957481
      0.05000000	      1.59037962	      5.22733713	      1.61610414	     -0.11689061	      1.03663875	     -0.07992337	     24.09181312	     -7.10820893	      3.86335332	     44.56287432	      0.77776888	     12.70607742	    -20.50065065	     -7.72986032	      8.05031256	      9.75465219	    -13.02127208	     16.49581318	      0.28790625	     16.77330665	      9.01853347	     -7.72986032	      2.64879192	     -7.45794384	     -0.92204074	     29.72872485	      8.40251051	     61.14640340	    121.73929833	    102.13427253	     46.03958147	      3.24477503	     69.51843526	    131.31559012	     86.50895872
      0.06666670	      1.17617700	      5.51719174	      1.63934116	     -0.11494592	      1.03672725	     -0.08006647	     24.43286310	     -7.51972219	      3.97049826	     44.03287178	      0.76851859	     13.20729415	    -20.95716346	     -7.69240918	      7.96325815	     10.09299452	    -13.32311591	     15.44828416	      0.26962342	     16.26895295	      9.71970577	     -7.69240918	      3.10528566	     -7.72244656	     -0.50077212	     28.81255043	      8.12335743	     61.33058029	    121.21982737	     98.19517356	     45.84015489	      3.30415052	     69.72883087	    130.45823043	     82.42463714
      0.08333330	      0.86665524	      5.89216564	      1.44885743	     -0.11191975	      1.03449361	     -0.07911589	     25.07612229	     -7.95803158	      4.21685160	     44.14115605	      0.77040851	     14.26787578	    -21.30156672	     -7.68901380	      8.08160537	     10.38231838	    -14.26308379	     14.97910885	      0.26143477	     16.28373348	     10.49278130	     -7.68901380	      3.59304383	     -8.22070972	     -0.30368113	     28.48671687	      8.42429089	     62.01708055	    120.93965045	     98.38406434	     45.98560860	      3.89122682	     70.19565821	    130.42110376	     82.30661268
      0.10000000	      0.59999193	      6.01962858	      1.51482934	     -0.11189975	      1.03491683	     -0.07942400	     25.61621166	     -8.29530837	      4.14583286	     44.20218497	      0.77147366	     14.25798905	    -22.06698102	     -7.67129341	      8.18669803	     10.39229833	    -15.18136559	     14.73141431	      0.25711168	     16.40575122	     11.33436072	     -7.67129341	      4.10161207	     -8.44280572	     -0.17000709	     28.33777495	      8.70171140	     62.48589837	    120.60325820	     97.70371384	     46.36587043	      4.54111058	     70.83558882	    130.47795307	     80.63573754
      0.11666670	      0.54937865	      6.20079145	      1.55253313	     -0.11420576	      1.03561830	     -0.07969822	     25.90906089	     -8.66759374	      4.15068653	     44.03501933	      0.76855607	     14.55988615	    -22.58460355	     -7.63969172	      8.12784756	     10.51072713	    -15.89425698	     14.39246204	      0.25119585	     16.21961042	     11.59802790	     -7.63969172	      4.18728544	     -8.79973134	     -0.20687513	     28.36516700	      8.99411889	     62.74894869	    120.31345468	     94.08703294	     46.96862324	      5.05713936	     71.43890919	    130.39437306	     77.12093437
      0.13333330	      0.41694916	      6.30586445	      1.68985408	     -0.11383426	      1.03479040	     -0.07990751	     26.20047989	     -9.06489068	      4.12850600	     43.55281602	      0.76014004	     15.09869435	    -22.73375090	     -7.62053357	      8.21395037	     10.51853065	    -16.76117705	     14.26010398	      0.24888577	     15.66318421	     11.51500150	     -7.62053357	      4.28314366	     -9.02370572	     -0.25327025	     28.28979804	      9.18648419	     62.87439099	    120.12638793	     92.48011929	     47.32242786	      5.35171743	     71.89369082	    130.42355684	     75.28262877
      0.15000000	      0.44959372	      6.34661768	      1.63868245	     -0.11257498	      1.03632391	     -0.07890806	     26.38360113	     -9.37415539	      4.10547376	     43.22068276	      0.75434322	     15.23819830	    -22.81676963	     -7.61879004	      8.02575020	     10.53131582	    -17.05621454	     13.93477636	      0.24320773	     15.16117711	     11.80847689	     -7.61879004	      4.30273688	     -9.25167902	     -0.28325196	     28.25248520	      9.38367312	     63.11889468	    120.10849516	     92.82088898	     47.33756528	      5.48054534	     72.20921975	    130.33103756	     75.15992291
      0.16666670	      0.53882120	      6.39207427	      1.65544476	     -0.11512924	      1.03848771	     -0.07901558	     26.65543486	     -9.84392836	      3.90380461	     42.77395168	      0.74654629	     15.21483522	    -22.97052344	     -7.59517733	      7.84997153	     10.56686991	    -17.55667753	     13.64324504	      0.23811955	     14.69069845	     11.98318882	     -7.59517733	      3.86527224	     -9.42873634	      0.05005043	     27.90002346	      9.28437052	     62.77916288	    120.34866772	     95.66063212	     47.65541637	      5.70550988	     72.90946420	    130.20824295	     72.41323169
      0.18333330	      0.40533968	      6.45614520	      1.67582033	     -0.11639963	      1.03674861	     -0.07916691	     27.41553419	    -10.40847928	      3.86611873	     42.70114777	      0.74527562	     14.91829435	    -23.05885421	     -7.58943588	      8.01272791	     10.68673272	    -17.19821743	     13.70806611	      0.23925089	     14.80475851	     11.77031924	     -7.58943588	      3.90119430	     -9.46907127	      0.09468369	     27.94925442	      9.28441450	     62.50963177	    120.15620931	     94.78618794	     47.53898721	      5.47801103	     72.82625068	    130.31009007	     71.78943925
      0.20000000	      0.50830971	      6.53854245	      1.43036676	     -0.11743082	      1.03742195	     -0.07918196	     27.86096654	    -11.03132924	      3.82397750	     42.19308062	      0.73640818	     14.29784355	    -22.67296179	     -7.58868447	      7.88815801	     10.88855374	    -17.22331175	     13.34252690	      0.23287103	     14.95434926	     12.11134366	     -7.58868447	      3.37038960	     -9.42135014	      0.63110694	     27.96726104	      9.15445245	     62.51443291	    120.36392983	     94.76916453	     47.28350259	      5.37406821	     72.91921739	    130.27580308	     71.71766154
      0.21666670	      0.53029877	      6.61203287	      1.04374862	     -0.11609654	      1.03813714	     -0.07881826	     28.33111019	    -11.63081200	      3.88203637	     41.64582607	      0.72685678	     13.56173777	    -22.35813957	     -7.58772141	      7.57893771	     11.08378616	    -16.93606529	     12.77930809	      0.22304100	     15.09342634	     12.59995421	     -7.58772141	      2.94598218	     -9.36542188	      1.09787890	     27.85861732	      9.02907041	     62.50793622	    120.88148846	     94.72271464	     46.99485860	      5.25632571	     72.87682331	    130.19135233	     71.59343892
      0.23333330	      0.72691103	      6.60057020	      0.69427323	     -0.11554240	      1.03775494	     -0.07835881	     28.81523743	    -12.18554123	      3.98274404	     41.36484999	      0.72195283	     12.44981013	    -22.77728329	     -7.58530316	      7.15191213	     11.14069422	    -16.85957543	     12.33210097	      0.21523577	     15.48745371	     13.08308103	     -7.58530316	      2.30454106	     -9.37897280	      1.81124365	     27.74855526	      8.81502093	     62.38572240	    121.79994659	     94.55359905	     46.72359128	      5.36769597	     72.73676555	    130.00062513	     71.29622260
      0.25000000	      0.81404860	      6.74524684	      0.31126380	     -0.11254780	      1.03813561	     -0.07796140	     29.36635206	    -13.01292319	      3.92686450	     40.78490392	      0.71183086	     10.56070075	    -23.54577306	     -7.58201053	      6.73244169	     11.35255408	    -17.17496309	     11.72005921	      0.20455362	     15.21253115	     13.42799866	     -7.58201053	      2.05596122	     -9.56349356	      2.43085966	     27.42704081	      8.72336516	     62.41204015	    122.47724351	     94.32035253	     46.22582406	      5.34420707	     72.67162146	    129.67521700	     70.96056831
